{"accessors" : [{"bufferView" : 0, "byteOffset" : 0, "componentType" : 5123, "count" : 156, "type" : "SCALAR", "max" : [155], "min" : [0]}, {"bufferView" : 1, "byteOffset" : 0, "componentType" : 5126, "count" : 156, "type" : "VEC3", "max" : [50, 50, 8.1810941696167], "min" : [-50, -50, -41.73976516723633], "name" : "POSITION"}, {"bufferView" : 1, "byteOffset" : 12, "componentType" : 5126, "count" : 156, "type" : "VEC3", "max" : [1.0000044107437134, 1.0000044107437134, 1.0000044107437134], "min" : [-1.0000044107437134, -1.0000044107437134, -1.0000044107437134], "name" : "NORMAL"}, {"bufferView" : 1, "byteOffset" : 24, "componentType" : 5126, "count" : 156, "type" : "VEC2", "max" : [0.9998850226402283, 0.18742597103118896], "min" : [0.6914129853248596, 0.12499797344207764], "name" : "TEXCOORD_0"}], "asset" : {"generator" : "Aspose.3D 25.3.0", "version" : "2.0"}, "buffers" : [{"uri" : "data:application/octet-stream;base64,", "byteLength" : 5312}], "bufferViews" : [{"buffer" : 0, "byteOffset" : 0, "byteLength" : 312, "target" : 34963}, {"buffer" : 0, "byteOffset" : 316, "byteLength" : 4992, "byteStride" : 32, "target" : 34962}], "meshes" : [{"primitives" : [{"attributes" : {"POSITION" : 1, "NORMAL" : 2, "TEXCOORD_0" : 3}, "indices" : 0, "mode" : 4}], "name" : ""}], "nodes" : [{"matrix" : [0.01, 0, 0, 0, 0, 0, -0.01, 0, 0, 0.0200317, 0, 0, 0, 0.8361187, 0, 1], "mesh" : 0, "name" : "CraftingTable"}], "scene" : 0, "scenes" : [{"nodes" : [0]}]}