<?xml version="1.0" standalone="no"?><!DOCTYPE svg PUBLIC "-//W3C//DTD SVG 1.1//EN" "http://www.w3.org/Graphics/SVG/1.1/DTD/svg11.dtd"><svg t="1746946165541" class="icon" viewBox="0 0 1024 1024" version="1.1" xmlns="http://www.w3.org/2000/svg" p-id="11206" xmlns:xlink="http://www.w3.org/1999/xlink" width="200" height="200"><path d="M807.406917 1.251987H191.679811c-10.015894-0.250397-19.90659 0.625993-29.672087 2.503973l-3.380365 0.751192C104.791927 16.275828 64.603151 59.71977 64.603151 111.426825v696.85585c0 47.325101 32.802054 89.892652 81.379142 106.043282l305.359579 101.536129c14.022252 4.75755 28.4201 6.885927 42.817948 6.885927 24.163345 0 48.201492-6.63553 68.984473-19.530994 27.042915-16.776623 45.321922-42.191955 51.832253-70.737254h192.430371c68.358479 0 123.821494-49.32828 123.821494-110.174838V111.426825c-0.125199-60.846558-55.588214-110.174838-123.821494-110.174838z m-610.343563 0.250397h-0.625993c0.125199-0.125199 0.375596-0.125199 0.625993 0z m29.296491 5.258345c-0.500795-0.125199-0.751192-0.250397-1.251987-0.375596 0.500795 0.125199 1.001589 0.250397 1.251987 0.375596z m-4.632351-1.251987c-0.375596-0.125199-0.625993-0.250397-1.126788-0.250397 0.500795 0 0.876391 0.125199 1.126788 0.250397zM216.218752 4.131556z m-4.507153-0.87639c-0.375596-0.125199-0.625993-0.125199-0.87639-0.250398 0.375596 0.250397 0.625993 0.250397 0.87639 0.250398z m-4.882748-0.751192c-0.250397 0-0.375596-0.125199-0.625993-0.125199 0.250397 0 0.500795 0.125199 0.625993 0.125199zM121.818948 18.905001c-1.001589 0.625993-1.87798 1.126788-2.87957 1.752781 1.001589-0.500795 1.87798-1.126788 2.87957-1.752781zM157.250174 4.75755c-0.250397 0-0.751192 0.125199-1.126788 0.250397 0.500795-0.125199 0.876391-0.250397 1.126788-0.250397z m-2.87957 0.751192l-1.377185 0.250397 1.377185-0.250397z m-3.129967 0.751192c-0.500795 0.125199-0.876391 0.250397-1.377185 0.375596 0.500795 0 0.876391-0.125199 1.377185-0.375596z m-3.004768 1.001589l-1.752782 0.625994c0.625993-0.250397 1.126788-0.375596 1.752782-0.625994zM143.853915 8.763908l-1.627583 0.625993 1.627583-0.625993z m-3.004768 1.126788l-1.627583 0.625993 1.627583-0.625993z m-3.129967 1.251986c-0.500795 0.250397-1.251987 0.500795-1.752782 0.751193 0.625993-0.250397 1.126788-0.625993 1.752782-0.751193z m-2.87957 1.126789c-0.876391 0.375596-1.87798 0.751192-2.754371 1.251986 0.751192-0.250397 1.627583-0.751192 2.754371-1.251986zM131.208848 14.022252l-2.378774 1.251987c0.751192-0.500795 1.627583-1.001589 2.378774-1.251987zM127.828484 15.775034c-0.625993 0.250397-1.377185 0.751192-1.87798 1.001589 0.500795-0.500795 1.126788-0.751192 1.87798-1.001589zM124.823716 17.277418c-0.625993 0.375596-1.377185 0.751192-2.003179 1.126788 0.625993-0.375596 1.251987-0.751192 2.003179-1.126788z m425.174716 892.541386c0 18.153809-9.264702 34.17924-25.415332 44.195134-14.898643 9.139504-32.802054 11.267881-49.578677 5.633941l-305.484779-101.536129c-22.410564-7.386722-37.434405-27.418511-37.434405-49.829075V114.181196c0-18.153809 9.264702-34.17924 25.415332-44.195134 14.898643-9.139504 32.927253-11.267881 49.578677-5.633941l305.35958 101.536129c22.410564 7.386722 37.434405 27.418511 37.434405 49.829075v694.101479z m67.482088 3.255166v-3.255166 3.255166z m-0.625994 9.014305c0-0.250397 0.125199-0.751192 0.125199-1.00159-0.125199 0.250397-0.125199 0.625993-0.125199 1.00159z m0.250398-2.87957c0-0.500795 0.125199-1.001589 0.125198-1.502384-0.125199 0.500795-0.125199 1.001589-0.125198 1.502384z m0.125198-3.004768c0-0.625993 0.125199-1.251987 0.125199-1.87798 0 0.500795 0 1.251987-0.125199 1.87798zM863.621124 822.555325c0 27.668908-25.164935 50.079472-56.214207 50.079471H617.48052V215.717325c0-47.325101-32.802054-89.892652-81.379142-106.043282L390.745711 61.347353h416.661206c31.049273 0 56.214207 22.410564 56.214207 50.079472v711.1285z m0 0" p-id="11207" fill="#ffffff"></path><path d="M428.180116 383.859151c-18.654603 0-33.803643 13.396259-33.803643 30.047684v260.413253c0 16.651424 15.023842 30.047683 33.803643 30.047683 18.654603 0 33.803643-13.396259 33.803644-30.047683v-260.413253c0-16.651424-15.14904-30.047683-33.803644-30.047684z m0 0" p-id="11208" fill="#ffffff"></path></svg>