{"scene":0,"asset":{"generator":"ImageToStl.com","version":"2.0"},"scenes":[{"name":"Scene","nodes":[0]}],"nodes":[{"name":"Node0","children":[1]},{"name":"Body","children":[2,3,5,7,9,11]},{"name":"Node2","mesh":0},{"name":"Hand2","children":[4]},{"name":"Node4","mesh":1},{"name":"Head","children":[6]},{"name":"Node6","mesh":2},{"name":"Leg2","children":[8]},{"name":"Node8","mesh":3},{"name":"Leg1","children":[10]},{"name":"Node10","mesh":4},{"name":"Hand1","children":[12]},{"name":"Node12","mesh":5}],"materials":[{"name":"x1","pbrMetallicRoughness":{"baseColorFactor":[0.85,0.85,0.85,1.0],"metallicFactor":0.05,"roughnessFactor":0.5},"doubleSided":true}],"meshes":[{"name":"Mesh0","primitives":[{"indices":3,"material":0,"attributes":{"POSITION":0,"NORMAL":1,"TEXCOORD_0":2}}]},{"name":"Mesh0","primitives":[{"indices":7,"material":0,"attributes":{"POSITION":4,"NORMAL":5,"TEXCOORD_0":6}}]},{"name":"Mesh0","primitives":[{"indices":11,"material":0,"attributes":{"POSITION":8,"NORMAL":9,"TEXCOORD_0":10}}]},{"name":"Mesh0","primitives":[{"indices":15,"material":0,"attributes":{"POSITION":12,"NORMAL":13,"TEXCOORD_0":14}}]},{"name":"Mesh0","primitives":[{"indices":19,"material":0,"attributes":{"POSITION":16,"NORMAL":17,"TEXCOORD_0":18}}]},{"name":"Mesh0","primitives":[{"indices":23,"material":0,"attributes":{"POSITION":20,"NORMAL":21,"TEXCOORD_0":22}}]}],"accessors":[{"bufferView":0,"componentType":5126,"count":70,"type":"VEC3","min":[-0.18059492,0.7021601,-0.13251878],"max":[0.18059507,1.4041921,0.09996346]},{"bufferView":1,"componentType":5126,"count":70,"type":"VEC3"},{"bufferView":2,"componentType":5126,"count":70,"type":"VEC2"},{"bufferView":3,"componentType":5123,"count":576,"type":"SCALAR"},{"bufferView":4,"componentType":5126,"count":32,"type":"VEC3","min":[0.18050008,0.7020349,-0.07719891],"max":[0.2967886,1.3011366,0.070510454]},{"bufferView":5,"componentType":5126,"count":32,"type":"VEC3"},{"bufferView":6,"componentType":5126,"count":32,"type":"VEC2"},{"bufferView":7,"componentType":5123,"count":180,"type":"SCALAR"},{"bufferView":8,"componentType":5126,"count":46,"type":"VEC3","min":[-0.14896807,1.3216857,-0.15389958],"max":[0.14898014,1.6904576,0.14343333]},{"bufferView":9,"componentType":5126,"count":46,"type":"VEC3"},{"bufferView":10,"componentType":5126,"count":46,"type":"VEC2"},{"bufferView":11,"componentType":5123,"count":288,"type":"SCALAR"},{"bufferView":12,"componentType":5126,"count":46,"type":"VEC3","min":[0.0080675315,-0.0006631432,-0.088730656],"max":[0.16059846,0.7901103,0.07236364]},{"bufferView":13,"componentType":5126,"count":46,"type":"VEC3"},{"bufferView":14,"componentType":5126,"count":46,"type":"VEC2"},{"bufferView":15,"componentType":5123,"count":216,"type":"SCALAR"},{"bufferView":16,"componentType":5126,"count":46,"type":"VEC3","min":[-0.16059634,-0.0006631432,-0.088730656],"max":[-0.008065425,0.79011023,0.07236364]},{"bufferView":17,"componentType":5126,"count":46,"type":"VEC3"},{"bufferView":18,"componentType":5126,"count":46,"type":"VEC2"},{"bufferView":19,"componentType":5123,"count":216,"type":"SCALAR"},{"bufferView":20,"componentType":5126,"count":32,"type":"VEC3","min":[-0.29678845,0.7020349,-0.07719891],"max":[-0.18049993,1.3011366,0.07051048]},{"bufferView":21,"componentType":5126,"count":32,"type":"VEC3"},{"bufferView":22,"componentType":5126,"count":32,"type":"VEC2"},{"bufferView":23,"componentType":5123,"count":180,"type":"SCALAR"}],"bufferViews":[{"target":34962,"buffer":0,"byteLength":840,"byteOffset":0},{"target":34962,"buffer":0,"byteLength":840,"byteOffset":840},{"target":34962,"buffer":0,"byteLength":560,"byteOffset":1680},{"target":34963,"buffer":0,"byteLength":1152,"byteOffset":2240},{"target":34962,"buffer":0,"byteLength":384,"byteOffset":3392},{"target":34962,"buffer":0,"byteLength":384,"byteOffset":3776},{"target":34962,"buffer":0,"byteLength":256,"byteOffset":4160},{"target":34963,"buffer":0,"byteLength":360,"byteOffset":4416},{"target":34962,"buffer":0,"byteLength":552,"byteOffset":4776},{"target":34962,"buffer":0,"byteLength":552,"byteOffset":5328},{"target":34962,"buffer":0,"byteLength":368,"byteOffset":5880},{"target":34963,"buffer":0,"byteLength":576,"byteOffset":6248},{"target":34962,"buffer":0,"byteLength":552,"byteOffset":6824},{"target":34962,"buffer":0,"byteLength":552,"byteOffset":7376},{"target":34962,"buffer":0,"byteLength":368,"byteOffset":7928},{"target":34963,"buffer":0,"byteLength":432,"byteOffset":8296},{"target":34962,"buffer":0,"byteLength":552,"byteOffset":8728},{"target":34962,"buffer":0,"byteLength":552,"byteOffset":9280},{"target":34962,"buffer":0,"byteLength":368,"byteOffset":9832},{"target":34963,"buffer":0,"byteLength":432,"byteOffset":10200},{"target":34962,"buffer":0,"byteLength":384,"byteOffset":10632},{"target":34962,"buffer":0,"byteLength":384,"byteOffset":11016},{"target":34962,"buffer":0,"byteLength":256,"byteOffset":11400},{"target":34963,"buffer":0,"byteLength":360,"byteOffset":11656}],"buffers":[{"byteLength":12016,"uri":"data:application/octet-stream;base64,"}]}